<?xml version="1.0" encoding="UTF-8" standalone="no"?>
<svg
  xmlns="http://www.w3.org/2000/svg"
  width="540"
  height="540"
  viewBox="0 0 540 540">

  <!-- MASK untuk lubang tengah -->
  <defs>
    <mask id="hole">
      <rect width="100%" height="100%" fill="white"/>
      <!-- bagian hitam = transparan -->
      <circle cx="270" cy="270" r="120" fill="black"/>
    </mask>
  </defs>

  <g mask="url(#hole)">
    <path d="m 511.48,205.29 c 11.9,44.43 11.9,84.97 0,129.40 L 492.14,345.19 270,270 493.53,195.79 z" fill="#fe2712"/>
    <path d="m 334.70,28.51 c 44.43,11.90 79.54,32.17 112.07,64.70 L 444.36,118.70 270,270 313.33,40.41 z" fill="#fb9902"/>
    <path d="m 446.77,93.22 c 32.52,32.52 52.79,67.63 64.70,112.07 L 270,270 z" fill="#fd5308"/>
    <path d="M 93.22,93.22 C 125.75,60.69 160.86,40.42 205.29,28.51 l 22.80,13.73 L 270,270 94.86,123.39 z" fill="#fefe33"/>
    <path d="m 205.29,28.51 c 44.43,-11.90 84.97,-11.90 129.40,0 L 270,270 z" fill="#fabc02"/>
    <path d="m 28.51,334.70 c -11.90,-44.43 -11.90,-84.97 0,-129.40 l 27.01,-14.37 L 270,270 52.69,347.10 z" fill="#66b032"/>
    <path d="M 28.51,205.29 C 40.42,160.86 60.69,125.75 93.22,93.22 L 270,270 z" fill="#d0ea2b"/>
    <path d="M 205.29,511.48 C 160.86,499.57 125.75,479.30 93.22,446.77 L 96.52,414.33 270,270 228.31,499.62 z" fill="#0247fe"/>
    <path d="M 93.22,446.77 C 60.69,414.24 40.42,379.13 28.51,334.70 L 270,270 z" fill="#0391ce"/>
    <path d="m 446.77,446.77 c -32.52,32.52 -67.63,52.79 -112.07,64.70 L 310.82,497.94 270,270 447.26,424.19 z" fill="#8601af"/>
    <path d="m 334.70,511.48 c -44.43,11.90 -84.97,11.90 -129.40,0 L 270,270 z" fill="#3d01a4"/>
    <path d="M 511.48,334.70 C 499.57,379.13 479.30,414.24 446.77,446.77 L 270,270 511.48,334.70 z" fill="#a7194b"/>
  </g>

</svg>
