<!DOCTYPE svg PUBLIC "-//W3C//DTD SVG 1.1//EN" "http://www.w3.org/Graphics/SVG/1.1/DTD/svg11.dtd">
<!-- Uploaded to: SVG Repo, www.svgrepo.com, Transformed by: SVG Repo Mixer Tools -->
<svg fill="#000000" version="1.1" id="Layer_1" xmlns="http://www.w3.org/2000/svg" xmlns:xlink="http://www.w3.org/1999/xlink" viewBox="0 0 496 496" xml:space="preserve" width="800px" height="800px">
<g id="SVGRepo_bgCarrier" stroke-width="0"/>
<g id="SVGRepo_tracerCarrier" stroke-linecap="round" stroke-linejoin="round"/>
<g id="SVGRepo_iconCarrier"> <g> <g> <g> <path d="M464,0c-17.648,0-32,14.352-32,32c0,9.816,4.536,18.504,11.52,24.384l-56.84,127.888c-0.896-0.08-1.76-0.272-2.68-0.272 c-10.848,0-20.416,5.448-26.2,13.728l-89.04-47.944c2.016-4.192,3.24-8.832,3.24-13.784c0-17.648-14.352-32-32-32 s-32,14.352-32,32c0,6.216,1.856,11.976,4.936,16.888l-63.064,77.08L112,168.8L16.768,322.632C5.8,340.352,0,360.744,0,381.584 V384c0,61.76,50.24,112,112,112c34.96,0,67.368-16.328,88.536-43.816C218.592,464.656,240.44,472,264,472 c61.76,0,112-50.24,112-112s-50.24-112-112-112c-31.984,0-60.8,13.544-81.232,35.12l-24-38.76l65.84-80.472 C229.2,166.424,234.392,168,240,168c6.76,0,13.024-2.136,18.192-5.736l94.112,50.68C352.208,213.968,352,214.952,352,216 c0,17.648,14.352,32,32,32s32-14.352,32-32c0-11.032-5.608-20.768-14.12-26.528l56.04-126.088c1.968,0.384,4,0.616,6.08,0.616 c17.648,0,32-14.352,32-32S481.648,0,464,0z M264,264c52.936,0,96,43.064,96,96c0,52.936-43.064,96-96,96 c-52.936,0-96-43.064-96-96C168,307.064,211.064,264,264,264z M172.064,296.216C159.448,314.336,152,336.296,152,360 c0,32.464,13.968,61.656,36.112,82.128C169.968,465.888,142.08,480,112,480c-52.936,0-96-43.064-96-96v-2.416 c0-17.864,4.968-35.344,14.368-50.528L112,199.2L172.064,296.216z M240,152c-8.824,0-16-7.176-16-16c0-8.824,7.176-16,16-16 c8.824,0,16,7.176,16,16C256,144.824,248.824,152,240,152z M384,232c-8.824,0-16-7.176-16-16c0-8.824,7.176-16,16-16 c8.824,0,16,7.176,16,16C400,224.824,392.824,232,384,232z M464,48c-8.824,0-16-7.176-16-16s7.176-16,16-16 c8.824,0,16,7.176,16,16S472.824,48,464,48z"/> <path d="M252,424h4v16h16v-16h4c19.848,0,36-16.152,36-36c0-19.848-16.152-36-36-36h-24c-11.024,0-20-8.968-20-20 c0-11.032,8.976-20,20-20h24c11.024,0,20,8.968,20,20v4h16v-4c0-19.848-16.152-36-36-36h-4v-16h-16v16h-4 c-19.848,0-36,16.152-36,36c0,19.848,16.152,36,36,36h24c11.024,0,20,8.968,20,20c0,11.032-8.976,20-20,20h-24 c-11.024,0-20-8.968-20-20v-4h-16v4C216,407.848,232.152,424,252,424z"/> <rect x="32" y="392" width="16" height="16"/> <rect x="48" y="416" width="16" height="16"/> <rect x="64" y="440" width="16" height="16"/> <rect x="464" y="80" width="16" height="16"/> <rect x="464" y="112" width="16" height="16"/> <rect x="464" y="144" width="16" height="16"/> <rect x="432" y="144" width="16" height="16"/> <rect x="432" y="176" width="16" height="16"/> <rect x="432" y="208" width="16" height="16"/> </g> </g> </g> </g>
</svg>