<?xml version="1.0" encoding="iso-8859-1"?>
<!-- Uploaded to: SVG Repo, www.svgrepo.com, Generator: SVG Repo Mixer Tools -->
<svg fill="#000000" height="800px" width="800px" version="1.1" id="Layer_1" xmlns="http://www.w3.org/2000/svg" xmlns:xlink="http://www.w3.org/1999/xlink" 
	 viewBox="0 0 511.999 511.999" xml:space="preserve">
<g>
	<g>
		<path d="M490.021,465.569h-12.25V133.921c0-4.458-3.613-8.071-8.071-8.071c-4.458,0-8.071,3.613-8.071,8.071v331.648h-58.738
			V437.88v-35.76v-35.76v-35.762v-35.76c0-0.174-0.015-0.343-0.026-0.516c0.011-0.171,0.026-0.341,0.026-0.515v-35.762v-35.76
			v-35.76v-35.76c0-0.174-0.015-0.344-0.026-0.516c0.011-0.171,0.026-0.341,0.026-0.515v-35.76v-35.76V62.903V50.527h23.269h3.878
			c17.42,0,31.592,14.173,31.592,31.592v24.903c0,4.458,3.613,8.071,8.071,8.071c4.458,0,8.071-3.613,8.071-8.071V82.114
			c0-24.896-19.16-45.389-43.508-47.537V20.985C434.264,9.414,424.85,0,413.28,0h-18.46c-4.458,0-8.071,3.613-8.071,8.071
			c0,4.458,3.613,8.071,8.071,8.071h18.46c2.67,0,4.843,2.173,4.843,4.843v13.395h-15.232v-1.614c0-4.458-3.613-8.071-8.071-8.071
			c-4.458,0-8.071,3.613-8.071,8.071v1.614h-45.197v-1.614c0-4.458-3.613-8.071-8.071-8.071c-4.458,0-8.071,3.613-8.071,8.071v1.614
			h-88.602V20.985c0-2.67,2.173-4.843,4.843-4.843h124.114c4.458,0,8.071-3.613,8.071-8.071c0-4.458-3.613-8.071-8.071-8.071H241.65
			c-11.571,0-20.985,9.414-20.985,20.985v13.609c-24.243,2.25-43.288,22.699-43.288,47.52v207.552h-14.463v-13.395
			c0-11.571-9.414-20.985-20.984-20.985h-60.98c-11.572,0-20.985,9.414-20.985,20.985v13.395h-9.932
			c-11.572,0-20.985,9.414-20.985,20.985v30.224v34.377v90.317h-7.071c-11.887,0-21.558,9.671-21.558,21.558v3.314
			c0,11.887,9.671,21.558,21.558,21.558h370.418c4.458,0,8.071-3.613,8.071-8.071c0-4.458-3.613-8.071-8.071-8.071H21.976
			c-2.986,0-5.416-2.43-5.416-5.416v-3.314c0-2.986,2.43-5.416,5.416-5.416h15.142h148.286c0.014,0,0.028,0.002,0.043,0.002H333.48
			h61.339h74.881c0.014,0,0.028-0.002,0.043-0.002h20.277c2.986,0,5.416,2.43,5.416,5.416v3.314c0,2.986-2.43,5.416-5.416,5.416
			h-70.365c-4.458,0-8.071,3.613-8.071,8.071c0,4.458,3.613,8.071,8.071,8.071h70.365c11.887,0,21.558-9.671,21.558-21.558v-3.314
			C511.58,475.24,501.908,465.569,490.021,465.569z M76.107,276.272c0-2.67,2.172-4.843,4.843-4.843h60.98
			c2.67,0,4.843,2.173,4.843,4.843v13.395H76.107V276.272z M177.377,465.569H45.189v-82.247h132.188V465.569z M177.377,367.181
			H45.189v-18.235h132.188V367.181z M177.377,332.804H45.189v-22.153c0-2.671,2.173-4.843,4.843-4.843h18.036h86.74h22.569V332.804z
			 M325.435,294.318c-0.011,0.171-0.026,0.341-0.026,0.515v35.76v35.762v35.76v35.76v27.689h-131.89v-90.317v-34.372v-43.138V82.114
			c0-17.42,14.172-31.592,31.592-31.592h3.659h96.64v12.375v15.313v35.76v35.76c0,0.174,0.015,0.344,0.026,0.516
			c-0.011,0.171-0.026,0.341-0.026,0.515v35.76v35.76v35.76v35.762C325.409,293.977,325.424,294.146,325.435,294.318z
			 M386.749,465.569h-45.197v-19.618h45.197V465.569z M386.749,429.808h-45.197v-19.618h45.197V429.808z M386.749,394.049h-45.197
			v-19.618h45.197V394.049z M386.749,358.288h-45.197v-19.62h45.197V358.288z M386.749,322.526h-45.197v-19.618h45.197V322.526z
			 M386.749,285.735h-45.197v-19.62h45.197V285.735z M386.749,249.973h-45.197v-19.618h45.197V249.973z M386.749,214.213h-45.197
			v-19.618h45.197V214.213z M386.749,178.452h-45.197v-19.618h45.197V178.452z M386.749,141.661h-45.197v-19.618h45.197V141.661z
			 M386.749,105.9h-45.197V86.282h45.197V105.9z M386.749,62.897v7.242h-45.197v-7.242V50.521h45.197V62.897z"/>
	</g>
</g>
</svg>