<?xml version="1.0" encoding="iso-8859-1"?>
<!-- Uploaded to: SVG Repo, www.svgrepo.com, Generator: SVG Repo Mixer Tools -->
<svg fill="#000000" height="800px" width="800px" version="1.1" id="Capa_1" xmlns="http://www.w3.org/2000/svg" xmlns:xlink="http://www.w3.org/1999/xlink" 
	 viewBox="0 0 463 463" xml:space="preserve">
<g>
	<path d="M375.5,309c-7.995,0-14.5,6.505-14.5,14.5s6.505,14.5,14.5,14.5s14.5-6.505,14.5-14.5S383.495,309,375.5,309z"/>
	<path d="M127.5,309c-7.995,0-14.5,6.505-14.5,14.5s6.505,14.5,14.5,14.5s14.5-6.505,14.5-14.5S135.495,309,127.5,309z"/>
	<path d="M47.5,309c-7.995,0-14.5,6.505-14.5,14.5S39.505,338,47.5,338S62,331.495,62,323.5S55.495,309,47.5,309z"/>
	<path d="M452.535,232.51l-14.539-9.692l-20.045-73.5C415.17,139.121,405.848,132,395.279,132H335.5c-4.142,0-7.5,3.358-7.5,7.5V276
		h-81v-17.395c35.913-3.761,64-34.212,64-71.105c0-39.425-32.075-71.5-71.5-71.5H239v-8.5c0-8.547-6.953-15.5-15.5-15.5h-32
		c-8.547,0-15.5,6.953-15.5,15.5v8.5H71.5C32.075,116,0,148.075,0,187.5c0,34.102,24.005,62.686,56,69.788V276H7.5
		c-4.142,0-7.5,3.358-7.5,7.5s3.358,7.5,7.5,7.5h5.406C4.912,299.504,0,310.936,0,323.5C0,349.691,21.309,371,47.5,371
		c16.782,0,31.548-8.756,40-21.932c8.452,13.176,23.218,21.932,40,21.932c23.639,0,43.295-17.36,46.902-40h18.832
		c3.138,9.29,11.93,16,22.266,16h72c10.336,0,19.128-6.71,22.266-16h18.832c3.607,22.64,23.263,40,46.902,40s43.295-17.36,46.902-40
		H447.5c8.547,0,15.5-6.953,15.5-15.5v-63.437C463,244.188,459.088,236.878,452.535,232.51z M421.681,220H383.5
		c-4.687,0-8.5-3.813-8.5-8.5V179h35.499L421.681,220z M343,147h52.279c3.822,0,7.194,2.576,8.2,6.263L406.408,164H367.5
		c-4.142,0-7.5,3.358-7.5,7.5v40c0,12.958,10.542,23.5,23.5,23.5h45.729l14.985,9.99c2.353,1.569,3.761,4.186,3.782,7.01H439.5
		c-4.142,0-7.5,3.358-7.5,7.5s3.358,7.5,7.5,7.5h8.5v9H343V147z M328,316h-18.234c-3.138-9.29-11.93-16-22.266-16h-72
		c-10.336,0-19.128,6.71-22.266,16h-18.832c-1.528-9.589-5.938-18.224-12.309-25H328V316z M119,276v-17h113v17H119z M296,187.5
		c0,31.154-25.346,56.5-56.5,56.5H119V131.5c0-0.169-0.014-0.334-0.025-0.5H239.5C270.654,131,296,156.346,296,187.5z M71,195h33v17
		H71V195z M104,180H71v-17h33V180z M71,227h33v17H71.5c-0.168,0-0.333-0.011-0.5-0.013V227z M191,107.5c0-0.276,0.224-0.5,0.5-0.5
		h32c0.276,0,0.5,0.224,0.5,0.5v8.5h-33V107.5z M104.025,131c-0.011,0.166-0.025,0.331-0.025,0.5V148H71v-16.5
		c0-0.164-0.014-0.325-0.025-0.487C71.151,131.012,71.324,131,71.5,131H104.025z M15,187.5c0-25.779,17.361-47.565,41-54.321
		v108.641C32.361,235.065,15,213.279,15,187.5z M71,258.987c0.167,0.001,0.332,0.013,0.5,0.013H104v17H71V258.987z M92.906,291
		c-2.007,2.135-3.817,4.455-5.406,6.932c-1.589-2.477-3.399-4.797-5.406-6.932H92.906z M47.5,356C29.58,356,15,341.42,15,323.5
		S29.58,291,47.5,291S80,305.58,80,323.5S65.42,356,47.5,356z M127.5,356c-17.92,0-32.5-14.58-32.5-32.5s14.58-32.5,32.5-32.5
		s32.5,14.58,32.5,32.5S145.42,356,127.5,356z M287.5,332h-72c-4.687,0-8.5-3.813-8.5-8.5s3.813-8.5,8.5-8.5h72
		c4.687,0,8.5,3.813,8.5,8.5S292.187,332,287.5,332z M375.5,356c-17.92,0-32.5-14.58-32.5-32.5s14.58-32.5,32.5-32.5
		s32.5,14.58,32.5,32.5S393.42,356,375.5,356z M447.5,316h-25.098c-1.528-9.589-5.938-18.224-12.309-25H448v24.5
		C448,315.776,447.776,316,447.5,316z"/>
</g>
</svg>