<?xml version="1.0" encoding="UTF-8"?>
<svg id="Layer_4" data-name="Layer 4" xmlns="http://www.w3.org/2000/svg" viewBox="0 0 82.27 84.57">
  <defs>
    <style>
      .cls-1 {
        fill: #231f20;
        stroke-width: 0px;
      }
    </style>
  </defs>
  <polygon class="cls-1" points="43.73 83.75 43.73 38.5 82.27 15.45 82.27 31.79 58.18 44.37 58.18 52.12 73.06 44.37 73.06 56.72 58.18 64.48 58.18 75.16 43.73 83.75"/>
  <polygon class="cls-1" points="80.21 11.89 41.02 34.51 1.79 12.65 15.94 4.48 38.88 19.06 45.58 15.19 31.44 6.18 42.14 0 56.29 9.01 65.54 3.66 80.21 11.89"/>
  <polygon class="cls-1" points="0 17.04 39.19 39.67 39.87 84.57 25.72 76.4 25.76 48.61 20.17 45.38 19.94 62.42 8.35 55.21 8.35 38.56 .21 33.85 0 17.04"/>
</svg>