<?xml version="1.0" encoding="UTF-8" standalone="no"?>
<svg
   id="b"
   viewBox="0 0 327.38 84.580002"
   version="1.1"
   sodipodi:docname="c2f52ea1f39416c59075a0ab93fe83be.svg"
   width="327.38"
   height="84.580002"
   xmlns:inkscape="http://www.inkscape.org/namespaces/inkscape"
   xmlns:sodipodi="http://sodipodi.sourceforge.net/DTD/sodipodi-0.dtd"
   xmlns="http://www.w3.org/2000/svg"
   xmlns:svg="http://www.w3.org/2000/svg">
  <defs
     id="defs18" />
  <sodipodi:namedview
     id="namedview16"
     pagecolor="#ffffff"
     bordercolor="#666666"
     borderopacity="1.0"
     inkscape:pageshadow="2"
     inkscape:pageopacity="0.0"
     inkscape:pagecheckerboard="0" />
  <g
     id="c">
    <polygon
       points="82.27,15.45 82.27,31.79 58.18,44.37 58.18,52.12 73.06,44.37 73.06,56.72 58.18,64.48 58.18,75.16 43.73,83.75 43.73,38.5 "
       fill="#ffffff"
       stroke-width="0"
       id="polygon2" />
    <polygon
       points="1.79,12.65 15.94,4.48 38.88,19.06 45.58,15.19 31.44,6.18 42.14,0 56.29,9.01 65.54,3.66 80.21,11.89 41.02,34.51 "
       fill="#ffffff"
       stroke-width="0"
       id="polygon4" />
    <polygon
       points="39.87,84.57 25.72,76.4 25.76,48.61 20.17,45.38 19.94,62.42 8.35,55.21 8.35,38.56 0.21,33.85 0,17.04 39.19,39.67 "
       fill="#ffffff"
       stroke-width="0"
       id="polygon6" />
    <path
       d="M 99.97,84.57 V 0 h 64.9 v 17.21 h -40.12 v 16.86 h 35.87 V 51.16 H 124.75 V 84.58 H 99.97 Z"
       fill="#ffffff"
       stroke-width="0"
       id="path8" />
    <path
       d="M 181.22,84.57 V 0 h 64.9 V 17.21 H 206 v 16.86 h 35.88 V 51.16 H 206 v 33.42 h -24.78 z"
       fill="#ffffff"
       stroke-width="0"
       id="path10" />
    <path
       d="M 262.48,84.57 V 0 h 64.9 v 17.21 h -40.12 v 16.86 h 35.87 v 17.09 h -35.87 v 33.42 h -24.78 z"
       fill="#ffffff"
       stroke-width="0"
       id="path12" />
  </g>
</svg>
